<?xml version="1.0" encoding="UTF-8" standalone="no"?>
<!-- Generator: Adobe Illustrator 17.1.0, SVG Export Plug-In . SVG Version: 6.00 Build 0)  -->

<svg
   xmlns:dc="http://purl.org/dc/elements/1.1/"
   xmlns:cc="http://creativecommons.org/ns#"
   xmlns:rdf="http://www.w3.org/1999/02/22-rdf-syntax-ns#"
   xmlns:svg="http://www.w3.org/2000/svg"
   xmlns="http://www.w3.org/2000/svg"
   xmlns:sodipodi="http://sodipodi.sourceforge.net/DTD/sodipodi-0.dtd"
   xmlns:inkscape="http://www.inkscape.org/namespaces/inkscape"
   version="1.1"
   id="Layer_1"
   x="0px"
   y="0px"
   viewBox="0 0 64 64"
   style="enable-background:new 0 0 64 64;"
   xml:space="preserve"
   inkscape:version="0.91 r13725"
   width="100%"
   height="100%"
   sodipodi:docname="battery.svg"
   inkscape:export-filename="/home/jacobian/.conky/img/bat.png"
   inkscape:export-xdpi="38.47826"
   inkscape:export-ydpi="38.47826"><metadata
     id="metadata11"><rdf:RDF><cc:Work
         rdf:about=""><dc:format>image/svg+xml</dc:format><dc:type
           rdf:resource="http://purl.org/dc/dcmitype/StillImage" /><dc:title /></cc:Work></rdf:RDF></metadata><defs
     id="defs9" /><sodipodi:namedview
     pagecolor="#ffffff"
     bordercolor="#666666"
     borderopacity="1"
     objecttolerance="10"
     gridtolerance="10"
     guidetolerance="10"
     inkscape:pageopacity="0"
     inkscape:pageshadow="2"
     inkscape:window-width="1210"
     inkscape:window-height="841"
     id="namedview7"
     showgrid="false"
     inkscape:zoom="4.9750688"
     inkscape:cx="41.556803"
     inkscape:cy="33.432432"
     inkscape:window-x="97"
     inkscape:window-y="154"
     inkscape:window-maximized="0"
     inkscape:current-layer="layer1"
     inkscape:showpageshadow="false" /><g
     inkscape:groupmode="layer"
     id="layer2"
     inkscape:label="fondo"
     style="display:none"><rect
       style="fill:#000000;fill-opacity:1;fill-rule:evenodd;stroke:none"
       id="rect3015"
       width="64"
       height="64"
       x="0"
       y="2.220446e-15" /></g><g
     inkscape:groupmode="layer"
     id="layer1"
     inkscape:label="dibujo"
     style="display:inline"><polygon
       points="29.105,47.684 38.204,36 32.436,36 34.895,27.316 25.796,39 31.564,39 "
       id="polygon3"
       transform="matrix(1.3821263,0,0,1.3821263,-12.228043,-17.065485)"
       style="fill:#934310;fill-opacity:1"
       inkscape:export-filename="/home/jacobian/.conky/themes/08/bat.png"
       inkscape:export-xdpi="28"
       inkscape:export-ydpi="28" /><path
       d="M 38.910632,1.5932203 H 25.089368 c -1.527249,0 -2.764252,1.2370031 -2.764252,2.7642527 V 7.1217257 H 16.79661 c -2.286037,0 -4.146379,1.8603421 -4.146379,4.1463793 v 46.992296 c 0,2.286037 1.860342,4.146379 4.146379,4.146379 h 30.40678 c 2.286037,0 4.146379,-1.860342 4.146379,-4.146379 V 11.268105 c 0,-2.2860372 -1.860342,-4.1463793 -4.146379,-4.1463793 H 41.674884 V 4.357473 c 0,-1.5272496 -1.237003,-2.7642527 -2.764252,-2.7642527 z m 8.292758,8.2927581 c 0.762934,0 1.382126,0.6191926 1.382126,1.3821266 v 46.992296 c 0,0.762933 -0.619192,1.382126 -1.382126,1.382126 H 16.79661 c -0.762934,0 -1.382126,-0.619193 -1.382126,-1.382126 V 11.268105 c 0,-0.762934 0.619192,-1.3821266 1.382126,-1.3821266 h 8.292758 13.821264 8.292758 z"
       id="path5"
       inkscape:connector-curvature="0"
       style="fill:#934310;fill-opacity:1"
       inkscape:export-filename="/home/jacobian/.conky/themes/08/bat.png"
       inkscape:export-xdpi="28"
       inkscape:export-ydpi="28" /></g></svg>