<?xml version="1.0" encoding="UTF-8" standalone="no"?>
<!-- Created with Inkscape (http://www.inkscape.org/) -->

<svg
   xmlns:dc="http://purl.org/dc/elements/1.1/"
   xmlns:cc="http://creativecommons.org/ns#"
   xmlns:rdf="http://www.w3.org/1999/02/22-rdf-syntax-ns#"
   xmlns:svg="http://www.w3.org/2000/svg"
   xmlns="http://www.w3.org/2000/svg"
   xmlns:xlink="http://www.w3.org/1999/xlink"
   xmlns:sodipodi="http://sodipodi.sourceforge.net/DTD/sodipodi-0.dtd"
   xmlns:inkscape="http://www.inkscape.org/namespaces/inkscape"
   width="1200"
   height="1200"
   id="svg2"
   version="1.1"
   inkscape:version="0.91 r13725"
   sodipodi:docname="icons.svg"
   inkscape:export-filename="/home/jacobian/.conky/themes/Sat/cpu.png"
   inkscape:export-xdpi="28"
   inkscape:export-ydpi="28">
  <defs
     id="defs4" />
  <sodipodi:namedview
     id="base"
     pagecolor="#ffffff"
     bordercolor="#666666"
     borderopacity="1.0"
     inkscape:pageopacity="0"
     inkscape:pageshadow="2"
     inkscape:zoom="0.26551031"
     inkscape:cx="1191.7339"
     inkscape:cy="482.87973"
     inkscape:document-units="px"
     inkscape:current-layer="layer4"
     showgrid="false"
     inkscape:window-width="1327"
     inkscape:window-height="936"
     inkscape:window-x="357"
     inkscape:window-y="75"
     inkscape:window-maximized="0"
     inkscape:showpageshadow="false"
     showborder="true"
     fit-margin-top="0"
     fit-margin-left="0"
     fit-margin-right="0"
     fit-margin-bottom="0" />
  <metadata
     id="metadata7">
    <rdf:RDF>
      <cc:Work
         rdf:about="">
        <dc:format>image/svg+xml</dc:format>
        <dc:type
           rdf:resource="http://purl.org/dc/dcmitype/StillImage" />
        <dc:title />
      </cc:Work>
    </rdf:RDF>
  </metadata>
  <g
     inkscape:groupmode="layer"
     id="layer3"
     inkscape:label="background"
     style="display:none"
     transform="translate(-40.000027,-163.79074)"
     sodipodi:insensitive="true">
    <rect
       style="fill:#b3b3b3;fill-opacity:1;fill-rule:evenodd;stroke:none"
       id="rect8282"
       width="1200"
       height="1200"
       x="40.000027"
       y="163.79063" />
  </g>
  <g
     inkscape:label="target"
     inkscape:groupmode="layer"
     id="layer1"
     style="display:none"
     transform="translate(-40.000027,-163.79074)"
     sodipodi:insensitive="true">
    <image
       sodipodi:absref="/home/jacobian/.conky/icons.jpg"
       xlink:href="icons.jpg"
       y="163.79074"
       x="40.000011"
       id="image7375"
       height="1200"
       width="1200" />
  </g>
  <g
     inkscape:groupmode="layer"
     id="layer9"
     inkscape:label="hdd">
    <path
       style="fill:#c87137;fill-opacity:1;fill-rule:evenodd;stroke:none"
       d="M 83.53125 347.0625 C 80.48425 347.0625 78.03125 349.5155 78.03125 352.5625 L 78.03125 548.5 C 78.03125 551.547 80.48425 554 83.53125 554 L 223.46875 554 C 226.51575 554 228.96875 551.547 228.96875 548.5 L 228.96875 352.5625 C 228.96875 349.5155 226.51575 347.0625 223.46875 347.0625 L 83.53125 347.0625 z M 93.25 357.4375 C 97.115993 357.4375 100.25 360.57151 100.25 364.4375 C 100.25 368.30349 97.115993 371.4375 93.25 371.4375 C 89.384007 371.4375 86.25 368.30349 86.25 364.4375 C 86.25 360.57151 89.384007 357.4375 93.25 357.4375 z M 212.75 357.4375 C 216.61599 357.4375 219.75 360.57151 219.75 364.4375 C 219.75 368.30349 216.61599 371.4375 212.75 371.4375 C 208.88401 371.4375 205.75 368.30349 205.75 364.4375 C 205.75 360.57151 208.88401 357.4375 212.75 357.4375 z M 153.5 362.8125 C 185.25637 362.8125 211 388.55613 211 420.3125 C 211 448.44899 190.78857 471.87091 164.09375 476.84375 L 181.5 445.90625 C 183.03493 442.86685 182.39795 439.1647 179.90625 436.84375 C 176.81655 433.96578 171.96738 434.12728 169.09375 437.21875 L 133.78125 474.34375 C 111.73054 466.29997 96 445.14638 96 420.3125 C 96 388.55613 121.74363 362.8125 153.5 362.8125 z M 153.625 408 C 146.79048 408 141.25 413.54048 141.25 420.375 C 141.25 427.20952 146.79048 432.75 153.625 432.75 C 160.45952 432.75 166 427.20952 166 420.375 C 166 413.54048 160.45952 408 153.625 408 z M 174.5 438.96875 C 175.39215 438.9194 176.28136 439.20315 177 439.84375 C 178.15566 440.8739 178.50017 442.53173 177.84375 443.9375 L 148.5 496 C 145.73677 501.37868 139.14803 503.56803 133.75 500.84375 C 128.35197 498.11948 126.18197 491.52303 128.90625 486.125 C 129.42895 485.08929 130.12902 484.15101 130.9375 483.3125 L 172.0625 440.09375 C 172.70869 439.38229 173.60785 439.0181 174.5 438.96875 z M 93.25 453.25 C 97.115993 453.25 100.25 456.38401 100.25 460.25 C 100.25 464.11599 97.115993 467.25 93.25 467.25 C 89.384007 467.25 86.25 464.11599 86.25 460.25 C 86.25 456.38401 89.384007 453.25 93.25 453.25 z M 212.75 453.25 C 216.61599 453.25 219.75 456.38401 219.75 460.25 C 219.75 464.11599 216.61599 467.25 212.75 467.25 C 208.88401 467.25 205.75 464.11599 205.75 460.25 C 205.75 456.38401 208.88401 453.25 212.75 453.25 z M 104.65625 479.28125 L 108.53125 479.28125 L 113.34375 479.28125 C 116.39075 479.28125 118.84294 481.73425 118.84375 484.78125 L 118.84375 490.34375 C 118.84375 501.59285 127.97309 510.72074 139.21875 510.71875 L 146.15625 510.71875 C 149.20325 510.71875 151.65625 513.17175 151.65625 516.21875 L 151.65625 524.15625 L 151.65625 529.78125 C 151.65625 532.82825 149.20325 535.28125 146.15625 535.28125 L 104.65625 535.28125 C 101.60925 535.28125 99.15625 532.82825 99.15625 529.78125 L 99.15625 484.78125 C 99.15625 481.73425 101.60925 479.28125 104.65625 479.28125 z M 164.40625 502.09375 L 205.9375 502.09375 L 205.9375 523.65625 L 164.40625 523.65625 L 164.40625 502.09375 z M 93.25 533.15625 C 97.115993 533.15625 100.25 536.29026 100.25 540.15625 C 100.25 544.02224 97.115993 547.15625 93.25 547.15625 C 89.384007 547.15625 86.25 544.02224 86.25 540.15625 C 86.25 536.29026 89.384007 533.15625 93.25 533.15625 z M 212.75 533.15625 C 216.61599 533.15625 219.75 536.29026 219.75 540.15625 C 219.75 544.02224 216.61599 547.15625 212.75 547.15625 C 208.88401 547.15625 205.75 544.02224 205.75 540.15625 C 205.75 536.29026 208.88401 533.15625 212.75 533.15625 z "
       id="rect3846"
       inkscape:export-xdpi="90"
       inkscape:export-ydpi="90" />
  </g>
  <g
     inkscape:groupmode="layer"
     id="layer5"
     inkscape:label="server"
     style="display:inline">
    <path
       style="fill:#c87137;fill-opacity:1;fill-rule:evenodd;stroke:none"
       d="m 415.5625,643.40625 c -9.0025,0 -16.25,7.2475 -16.25,16.25 l 0,178.1875 c 0,9.0025 7.2475,16.25 16.25,16.25 l 85.78125,0 c 9.0025,0 16.25,-7.2475 16.25,-16.25 l 0,-178.1875 c 0,-9.0025 -7.2475,-16.25 -16.25,-16.25 l -85.78125,0 z m 3.34375,22.71875 79.09375,0 c 2.77474,0 5,2.22526 5,5 0,2.77475 -2.22526,5 -5,5 l -79.09375,0 c -2.77474,0 -5.03125,-2.22525 -5.03125,-5 0,-2.77474 2.25651,-5 5.03125,-5 z m 0,23 79.09375,0 c 2.77474,0 5,2.22526 5,5 0,2.77475 -2.22526,5 -5,5 l -79.09375,0 c -2.77474,0 -5.03125,-2.22525 -5.03125,-5 0,-2.77474 2.25651,-5 5.03125,-5 z m 0,22.75 79.09375,0 c 2.77474,0 5,2.22526 5,5 0,2.77475 -2.22526,5 -5,5 l -79.09375,0 c -2.77474,0 -5.03125,-2.22525 -5.03125,-5 0,-2.77474 2.25651,-5 5.03125,-5 z m 76.25,33.78125 c 4.33705,0 7.84375,3.5067 7.84375,7.84375 0,4.33704 -3.5067,7.84375 -7.84375,7.84375 -4.33705,0 -7.84375,-3.50671 -7.84375,-7.84375 0,-4.33705 3.5067,-7.84375 7.84375,-7.84375 z M 416,785.125 c 1.17725,0 2.125,0.94775 2.125,2.125 l 0,50.5 c 0,1.17725 -0.94775,2.125 -2.125,2.125 -1.17725,0 -2.125,-0.94775 -2.125,-2.125 l 0,-50.5 c 0,-1.17725 0.94775,-2.125 2.125,-2.125 z m 14.15625,0 c 1.17725,0 2.125,0.94775 2.125,2.125 l 0,50.5 c 0,1.17725 -0.94775,2.125 -2.125,2.125 -1.17725,0 -2.125,-0.94775 -2.125,-2.125 l 0,-50.5 c 0,-1.17725 0.94775,-2.125 2.125,-2.125 z m 14.15625,0 c 1.17725,0 2.125,0.94775 2.125,2.125 l 0,50.5 c 0,1.17725 -0.94775,2.125 -2.125,2.125 -1.17725,0 -2.125,-0.94775 -2.125,-2.125 l 0,-50.5 c 0,-1.17725 0.94775,-2.125 2.125,-2.125 z m 14.125,0 c 1.17725,0 2.125,0.94775 2.125,2.125 l 0,50.5 c 0,1.17725 -0.94775,2.125 -2.125,2.125 -1.17725,0 -2.125,-0.94775 -2.125,-2.125 l 0,-50.5 c 0,-1.17725 0.94775,-2.125 2.125,-2.125 z m 14.15625,0 c 1.17725,0 2.125,0.94775 2.125,2.125 l 0,50.5 c 0,1.17725 -0.94775,2.125 -2.125,2.125 -1.17725,0 -2.125,-0.94775 -2.125,-2.125 l 0,-50.5 c 0,-1.17725 0.94775,-2.125 2.125,-2.125 z m 14.15625,0 c 1.17725,0 2.125,0.94775 2.125,2.125 l 0,50.5 c 0,1.17725 -0.94775,2.125 -2.125,2.125 -1.17725,0 -2.125,-0.94775 -2.125,-2.125 l 0,-50.5 c 0,-1.17725 0.94775,-2.125 2.125,-2.125 z m 14.125,0 c 1.17725,0 2.125,0.94775 2.125,2.125 l 0,50.5 c 0,1.17725 -0.94775,2.125 -2.125,2.125 -1.17725,0 -2.125,-0.94775 -2.125,-2.125 l 0,-50.5 c 0,-1.17725 0.94775,-2.125 2.125,-2.125 z"
       id="rect3006"
       inkscape:connector-curvature="0" />
  </g>
  <g
     inkscape:groupmode="layer"
     id="layer6"
     inkscape:label="network"
     style="display:inline">
    <path
       style="fill:#c87137;fill-opacity:1;fill-rule:evenodd;stroke:none"
       d="m 689.4375,968.0625 c -8.91202,0 -16.09375,7.18173 -16.09375,16.09375 l 0,7.25 c 0,8.91205 7.18173,16.09375 16.09375,16.09375 l 127.96875,0 c 8.91202,0 16.09375,-7.1817 16.09375,-16.09375 l 0,-7.25 c 0,-8.91202 -7.18173,-16.09375 -16.09375,-16.09375 l -127.96875,0 z m 128.15625,12.125 c 4.19814,0 7.59375,3.39561 7.59375,7.59375 0,4.19814 -3.39561,7.59375 -7.59375,7.59375 -4.19814,0 -7.59375,-3.39561 -7.59375,-7.59375 0,-4.19814 3.39561,-7.59375 7.59375,-7.59375 z m -35,3.53125 c 2.24551,0 4.0625,1.81699 4.0625,4.0625 0,2.24551 -1.81699,4.0625 -4.0625,4.0625 -2.24551,0 -4.0625,-1.81699 -4.0625,-4.0625 0,-2.24551 1.81699,-4.0625 4.0625,-4.0625 z m 15.71875,0 c 2.24551,0 4.0625,1.81699 4.0625,4.0625 0,2.24551 -1.81699,4.0625 -4.0625,4.0625 -2.24551,0 -4.0625,-1.81699 -4.0625,-4.0625 0,-2.24551 1.81699,-4.0625 4.0625,-4.0625 z"
       id="rect3830"
       inkscape:connector-curvature="0"
       inkscape:export-filename="/home/jacobian/.conky/rect3859.png"
       inkscape:export-xdpi="90"
       inkscape:export-ydpi="90" />
    <path
       id="path3851"
       d="m 689.4375,1015.8125 c -8.91202,0 -16.09375,7.1817 -16.09375,16.0937 l 0,7.25 c 0,8.9121 7.18173,16.0938 16.09375,16.0938 l 127.96875,0 c 8.91202,0 16.09375,-7.1817 16.09375,-16.0938 l 0,-7.25 c 0,-8.912 -7.18173,-16.0937 -16.09375,-16.0937 l -127.96875,0 z m 128.15625,12.125 c 4.19814,0 7.59375,3.3956 7.59375,7.5937 0,4.1982 -3.39561,7.5938 -7.59375,7.5938 -4.19814,0 -7.59375,-3.3956 -7.59375,-7.5938 0,-4.1981 3.39561,-7.5937 7.59375,-7.5937 z m -35,3.5312 c 2.24551,0 4.0625,1.817 4.0625,4.0625 0,2.2456 -1.81699,4.0625 -4.0625,4.0625 -2.24551,0 -4.0625,-1.8169 -4.0625,-4.0625 0,-2.2455 1.81699,-4.0625 4.0625,-4.0625 z m 15.71875,0 c 2.24551,0 4.0625,1.817 4.0625,4.0625 0,2.2456 -1.81699,4.0625 -4.0625,4.0625 -2.24551,0 -4.0625,-1.8169 -4.0625,-4.0625 0,-2.2455 1.81699,-4.0625 4.0625,-4.0625 z"
       style="fill:#c87137;fill-opacity:1;fill-rule:evenodd;stroke:none"
       inkscape:connector-curvature="0"
       inkscape:export-filename="/home/jacobian/.conky/rect3859.png"
       inkscape:export-xdpi="90"
       inkscape:export-ydpi="90" />
    <path
       style="fill:#c87137;fill-opacity:1;fill-rule:evenodd;stroke:none"
       d="m 689.4375,1063.5625 c -8.91202,0 -16.09375,7.1818 -16.09375,16.0937 l 0,7.25 c 0,8.9122 7.18173,16.0938 16.09375,16.0938 l 56.375,0 0,11.4062 c -4.27178,2.4112 -7.15625,6.9638 -7.15625,12.2188 0,7.7617 6.26958,14.0625 14.03125,14.0625 7.76167,0 14.0625,-6.3008 14.0625,-14.0625 0,-5.255 -2.88447,-9.8077 -7.15625,-12.2188 l 0,-11.4062 57.8125,0 c 8.91202,0 16.09375,-7.1816 16.09375,-16.0938 l 0,-7.25 c 0,-8.912 -7.18173,-16.0937 -16.09375,-16.0937 l -127.96875,0 z m 128.15625,12.125 c 4.19814,0 7.59375,3.3956 7.59375,7.5937 0,4.1983 -3.39561,7.5938 -7.59375,7.5938 -4.19814,0 -7.59375,-3.3955 -7.59375,-7.5938 0,-4.1981 3.39561,-7.5937 7.59375,-7.5937 z m -35,3.5313 c 2.24551,0 4.0625,1.817 4.0625,4.0624 0,2.2456 -1.81699,4.0626 -4.0625,4.0626 -2.24551,0 -4.0625,-1.817 -4.0625,-4.0626 0,-2.2454 1.81699,-4.0624 4.0625,-4.0624 z m 15.71875,0 c 2.24551,0 4.0625,1.817 4.0625,4.0624 0,2.2456 -1.81699,4.0626 -4.0625,4.0626 -2.24551,0 -4.0625,-1.817 -4.0625,-4.0626 0,-2.2454 1.81699,-4.0624 4.0625,-4.0624 z"
       id="path3853"
       inkscape:connector-curvature="0"
       inkscape:export-filename="/home/jacobian/.conky/rect3859.png"
       inkscape:export-xdpi="90"
       inkscape:export-ydpi="90" />
    <path
       inkscape:connector-curvature="0"
       style="fill:#c87137;fill-opacity:1;fill-rule:evenodd;stroke:none"
       d="m 678.46875,1119.375 0,14.5 54,0 c -0.80697,-2.2586 -1.25,-4.7141 -1.25,-7.25 0,-2.5498 0.4658,-4.9809 1.28125,-7.25 l -54.03125,0 z m 94.4375,0 c 0.81545,2.2691 1.28125,4.7002 1.28125,7.25 0,2.5359 -0.44303,4.9914 -1.25,7.25 l 55.4375,0 0,-14.5 -55.46875,0 z"
       id="rect3859"
       inkscape:export-xdpi="90"
       inkscape:export-ydpi="90" />
  </g>
  <g
     inkscape:groupmode="layer"
     id="layer7"
     inkscape:label="laptop"
     style="display:inline">
    <path
       style="fill:#c87137;fill-opacity:1;fill-rule:evenodd;stroke:none"
       d="m 962.71875,977.59375 c -4.30911,0 -7.78125,3.47214 -7.78125,7.78125 l 0,119.3125 -19.375,0 c -4.5705,0 -8.25,3.6795 -8.25,8.25 l 0,9.4375 c 0,4.5705 3.6795,8.25 8.25,8.25 l 230.7187,0 c 4.5707,0 8.25,-3.6795 8.25,-8.25 l 0,-9.4375 c 0,-4.5705 -3.6793,-8.25 -8.25,-8.25 l -19.4062,0 0,-119.3125 c 0,-4.30911 -3.4725,-7.78125 -7.7812,-7.78125 l -176.37505,0 z m 9.1875,16.28125 158.03125,0 0,106.0625 -158.03125,0 0,-106.0625 z m 44.59375,120.2812 69,0 c 1.939,0 3.5,1.5613 3.5,3.5 0,1.9394 -1.561,3.5 -3.5,3.5 l -69,0 c -1.939,0 -3.5,-1.5606 -3.5,-3.5 0,-1.9387 1.561,-3.5 3.5,-3.5 z m 110.0625,0 c 1.933,0 3.5,1.5671 3.5,3.5 0,1.933 -1.567,3.5 -3.5,3.5 -1.933,0 -3.5,-1.567 -3.5,-3.5 0,-1.9329 1.567,-3.5 3.5,-3.5 z m 12.9687,0 c 1.933,0 3.5,1.5672 3.5,3.5 0,1.933 -1.567,3.5 -3.5,3.5 -1.9328,0 -3.5,-1.567 -3.5,-3.5 0,-1.9328 1.5672,-3.5 3.5,-3.5 z m 12.9688,0 c 1.933,0 3.5,1.5672 3.5,3.5 0,1.933 -1.567,3.5 -3.5,3.5 -1.933,0 -3.5,-1.567 -3.5,-3.5 0,-1.9327 1.567,-3.5 3.5,-3.5 z"
       id="rect3015"
       inkscape:connector-curvature="0" />
  </g>
  <g
     inkscape:groupmode="layer"
     id="layer4"
     inkscape:label="mem"
     style="display:inline"
     transform="translate(-40.000027,-163.79074)">
    <g
       id="g3809"
       style="fill:#ffffff;fill-opacity:1"
       inkscape:export-filename="/home/jacobian/.conky/themes/Sun/mem.png"
       inkscape:export-xdpi="28"
       inkscape:export-ydpi="28">
      <path
         id="rect3004"
         d="m 716.125,230.78125 0,4.15625 -18.90625,0 0,9.71875 18.90625,0 0,4.15625 19.78125,0 0,-18.03125 -19.78125,0 z"
         style="fill:#ffffff;fill-opacity:1;fill-rule:evenodd;stroke:none"
         inkscape:connector-curvature="0" />
      <path
         inkscape:connector-curvature="0"
         style="fill:#ffffff;fill-opacity:1;fill-rule:evenodd;stroke:none"
         d="m 716.125,258.51752 0,4.15625 -18.90625,0 0,9.71875 18.90625,0 0,4.15625 19.78125,0 0,-18.03125 -19.78125,0 z"
         id="path3777" />
      <path
         id="path3779"
         d="m 716.125,286.25378 0,4.15625 -18.90625,0 0,9.71875 18.90625,0 0,4.15625 19.78125,0 0,-18.03125 -19.78125,0 z"
         style="fill:#ffffff;fill-opacity:1;fill-rule:evenodd;stroke:none"
         inkscape:connector-curvature="0" />
      <path
         inkscape:connector-curvature="0"
         style="fill:#ffffff;fill-opacity:1;fill-rule:evenodd;stroke:none"
         d="m 716.125,313.99005 0,4.15625 -18.90625,0 0,9.71875 18.90625,0 0,4.15625 19.78125,0 0,-18.03125 -19.78125,0 z"
         id="path3781" />
      <path
         id="path3783"
         d="m 716.125,341.72632 0,4.15625 -18.90625,0 0,9.71875 18.90625,0 0,4.15625 19.78125,0 0,-18.03125 -19.78125,0 z"
         style="fill:#ffffff;fill-opacity:1;fill-rule:evenodd;stroke:none"
         inkscape:connector-curvature="0" />
      <path
         inkscape:connector-curvature="0"
         style="fill:#ffffff;fill-opacity:1;fill-rule:evenodd;stroke:none"
         d="m 716.125,369.46259 0,4.15625 -18.90625,0 0,9.71875 18.90625,0 0,4.15625 19.78125,0 0,-18.03125 -19.78125,0 z"
         id="path3785" />
    </g>
    <g
       id="g3801"
       style="fill:#ffffff;fill-opacity:1"
       inkscape:export-filename="/home/jacobian/.conky/themes/Sun/mem.png"
       inkscape:export-xdpi="28"
       inkscape:export-ydpi="28">
      <path
         inkscape:connector-curvature="0"
         style="fill:#ffffff;fill-opacity:1;fill-rule:evenodd;stroke:none"
         d="m 872,387.49384 0,-4.15625 18.90625,0 0,-9.71875 -18.90625,0 0,-4.15625 -19.78125,0 0,18.03125 19.78125,0 z"
         id="path3787" />
      <path
         id="path3789"
         d="m 872,359.75757 0,-4.15625 18.90625,0 0,-9.71875 -18.90625,0 0,-4.15625 -19.78125,0 0,18.03125 19.78125,0 z"
         style="fill:#ffffff;fill-opacity:1;fill-rule:evenodd;stroke:none"
         inkscape:connector-curvature="0" />
      <path
         inkscape:connector-curvature="0"
         style="fill:#ffffff;fill-opacity:1;fill-rule:evenodd;stroke:none"
         d="m 872,332.02131 0,-4.15625 18.90625,0 0,-9.71875 -18.90625,0 0,-4.15625 -19.78125,0 0,18.03125 19.78125,0 z"
         id="path3791" />
      <path
         id="path3793"
         d="m 872,304.28504 0,-4.15625 18.90625,0 0,-9.71875 -18.90625,0 0,-4.15625 -19.78125,0 0,18.03125 19.78125,0 z"
         style="fill:#ffffff;fill-opacity:1;fill-rule:evenodd;stroke:none"
         inkscape:connector-curvature="0" />
      <path
         inkscape:connector-curvature="0"
         style="fill:#ffffff;fill-opacity:1;fill-rule:evenodd;stroke:none"
         d="m 872,276.54877 0,-4.15625 18.90625,0 0,-9.71875 -18.90625,0 0,-4.15625 -19.78125,0 0,18.03125 19.78125,0 z"
         id="path3795" />
      <path
         id="path3797"
         d="m 872,248.8125 0,-4.15625 18.90625,0 0,-9.71875 -18.90625,0 0,-4.15625 -19.78125,0 0,18.03125 19.78125,0 z"
         style="fill:#ffffff;fill-opacity:1;fill-rule:evenodd;stroke:none"
         inkscape:connector-curvature="0" />
    </g>
    <path
       style="font-size:medium;font-style:normal;font-variant:normal;font-weight:normal;font-stretch:normal;text-indent:0;text-align:start;text-decoration:none;line-height:normal;letter-spacing:normal;word-spacing:normal;text-transform:none;direction:ltr;block-progression:tb;writing-mode:lr-tb;text-anchor:start;baseline-shift:baseline;color:#000000;fill:#ffffff;fill-opacity:1;stroke:none;stroke-width:4;marker:none;visibility:visible;display:inline;overflow:visible;enable-background:accumulate;font-family:Sans;-inkscape-font-specification:Sans"
       d="M 839.15625,210.53125 747.8125,210.75 a 2.0002,2.0002 0 0 0 -1.4375,0.59375 l -6.78125,6.875 a 2.0002,2.0002 0 0 0 -0.5625,1.40625 l 0,178.875 a 2.0002,2.0002 0 0 0 0.5625,1.375 l 6.78125,6.875 a 2.0002,2.0002 0 0 0 1.4375,0.625 l 91.34375,0.1875 A 2.0002,2.0002 0 0 0 840.5625,407 l 6.875,-6.78125 a 2.0002,2.0002 0 0 0 0.625,-1.4375 l 0,-179.46875 a 2.0002,2.0002 0 0 0 -0.625,-1.4375 l -6.875,-6.75 a 2.0002,2.0002 0 0 0 -1.40625,-0.59375 z m -0.8125,4 5.71875,5.625 0,177.8125 -5.71875,5.59375 -89.71875,-0.1875 -5.59375,-5.71875 0,-177.1875 5.59375,-5.71875 89.71875,-0.21875 z"
       id="path3842"
       inkscape:connector-curvature="0"
       inkscape:export-filename="/home/jacobian/.conky/themes/Sun/mem.png"
       inkscape:export-xdpi="28"
       inkscape:export-ydpi="28" />
    <path
       style="font-size:medium;font-style:normal;font-variant:normal;font-weight:normal;font-stretch:normal;text-indent:0;text-align:start;text-decoration:none;line-height:normal;letter-spacing:normal;word-spacing:normal;text-transform:none;direction:ltr;block-progression:tb;writing-mode:lr-tb;text-anchor:start;baseline-shift:baseline;color:#000000;fill:#ffffff;fill-opacity:1;stroke:none;stroke-width:4;marker:none;visibility:visible;display:inline;overflow:visible;enable-background:accumulate;font-family:Sans;-inkscape-font-specification:Sans"
       d="m 752.53125,219 c -0.4691,0.0424 -0.92072,0.25696 -1.25,0.59375 l -3.625,3.78125 c -0.35999,0.37215 -0.56653,0.88849 -0.5625,1.40625 l 0,169.125 c -0.004,0.51776 0.20251,1.0341 0.5625,1.40625 l 3.625,3.78125 c 0.37439,0.37862 0.90505,0.5978 1.4375,0.59375 l 82.5,0 c 0.54281,0.0125 1.08711,-0.20755 1.46875,-0.59375 l 3.59375,-3.78125 c 0.35999,-0.37215 0.56653,-0.88849 0.5625,-1.40625 l 0,-169.125 c 0.004,-0.51776 -0.20251,-1.0341 -0.5625,-1.40625 l -3.59375,-3.78125 c -0.38164,-0.3862 -0.92594,-0.60624 -1.46875,-0.59375 l -82.5,0 c -0.0625,-0.003 -0.12505,-0.003 -0.1875,0 z m 55.625,148.8125 9.6875,0 0,9.65625 9.65625,0 0,9.6875 -9.65625,0 0,-9.65625 -9.6875,0 0,-9.6875 z"
       id="path3850"
       inkscape:export-filename="/home/jacobian/.conky/themes/Sun/mem.png"
       inkscape:export-xdpi="28"
       inkscape:export-ydpi="28"
       inkscape:connector-curvature="0" />
  </g>
  <g
     inkscape:groupmode="layer"
     id="layer2"
     inkscape:label="cpu"
     style="display:inline"
     transform="translate(-40.000027,-163.79074)">
    <path
       style="fill:#ffffff;fill-opacity:1;stroke:none"
       d="m 451.75,242.75 -20.40625,20.4375 0,91.9375 20.4375,20.4375 91.9375,0 20.4375,-20.4375 0,-91.9375 L 543.75,242.75 l -92,0 z m 0.875,106.03125 c 2.55432,0 4.625,2.07068 4.625,4.625 0,2.55432 -2.07068,4.625 -4.625,4.625 -2.55432,0 -4.625,-2.07068 -4.625,-4.625 0,-2.55432 2.07068,-4.625 4.625,-4.625 z"
       id="rect8153"
       inkscape:connector-curvature="0"
       inkscape:export-filename="/home/jacobian/.conky/themes/Sun/cpu.png"
       inkscape:export-xdpi="28.256937"
       inkscape:export-ydpi="28.256937" />
    <path
       style="fill:#ffffff;fill-opacity:1;stroke:none"
       d="m 440.78125,207.34375 0,7.875 -2.5625,0 0,19.4375 -15,14.96875 -19.4375,0 0,2.59375 -7.875,0 0,4.46875 7.875,0 0,2.5625 12.71875,0 0,8.625 -12.71875,0 0,2.59375 -7.875,0 0,4.46875 7.875,0 0,2.5625 12.71875,0 0,8.625 -12.71875,0 0,2.59375 -7.875,0 0,4.46875 7.875,0 0,2.5625 12.71875,0 0,8.59375 -12.71875,0 0,2.59375 -7.875,0 0,4.46875 7.875,0 0,2.5625 12.71875,0 0,8.625 -12.71875,0 0,2.59375 -7.875,0 0,4.46875 7.875,0 0,2.5625 12.71875,0 0,8.625 -12.71875,0 0,2.59375 -7.875,0 0,4.46875 7.875,0 0,2.5625 12.71875,0 0,8.59375 -12.71875,0 0,2.59375 -7.875,0 0,4.46875 7.875,0 0,2.5625 19.4375,0 15.1875,15.15625 0,19.4375 2.59375,0 0,7.875 4.46875,0 0,-7.875 2.5625,0 0,-12.71875 8.625,0 0,12.71875 2.59375,0 0,7.875 4.46875,0 0,-7.875 2.5625,0 0,-12.71875 8.625,0 0,12.71875 2.59375,0 0,7.875 4.46875,0 0,-7.875 2.5625,0 0,-12.71875 8.59375,0 0,12.71875 2.59375,0 0,7.875 4.46875,0 0,-7.875 2.5625,0 0,-12.71875 8.625,0 0,12.71875 2.59375,0 0,7.875 4.46875,0 0,-7.875 2.5625,0 0,-12.71875 8.625,0 0,12.71875 2.59375,0 0,7.875 4.46875,0 0,-7.875 2.5625,0 0,-12.71875 8.59375,0 0,12.71875 2.59375,0 0,7.875 4.46875,0 0,-7.875 2.5625,0 0,-19.4375 14.96875,-14.9375 19.4375,0 0,-2.59375 7.875,0 0,-4.46875 -7.875,0 0,-2.5625 -12.71875,0 0,-8.625 12.71875,0 0,-2.59375 7.875,0 0,-4.46875 -7.875,0 0,-2.5625 -12.71875,0 0,-8.625 12.71875,0 0,-2.59375 7.875,0 0,-4.46875 -7.875,0 0,-2.5625 -12.71875,0 0,-8.59375 12.71875,0 0,-2.59375 7.875,0 0,-4.46875 -7.875,0 0,-2.5625 -12.71875,0 0,-8.625 12.71875,0 0,-2.59375 7.875,0 0,-4.46875 -7.875,0 0,-2.5625 -12.71875,0 0,-8.625 12.71875,0 0,-2.59375 7.875,0 0,-4.46875 -7.875,0 0,-2.5625 -12.71875,0 0,-8.59375 12.71875,0 0,-2.59375 7.875,0 0,-4.46875 -7.875,0 0,-2.5625 -19.4375,0 -15.15625,-15.1875 0,-19.4375 -2.59375,0 0,-7.875 -4.46875,0 0,7.875 -2.5625,0 0,12.71875 -8.625,0 0,-12.71875 -2.59375,0 0,-7.875 -4.46875,0 0,7.875 -2.5625,0 0,12.71875 -8.625,0 0,-12.71875 -2.59375,0 0,-7.875 -4.46875,0 0,7.875 -2.5625,0 0,12.71875 -8.59375,0 0,-12.71875 -2.59375,0 0,-7.875 -4.46875,0 0,7.875 -2.5625,0 0,12.71875 -8.625,0 0,-12.71875 -2.59375,0 0,-7.875 -4.46875,0 0,7.875 -2.5625,0 0,12.71875 -8.625,0 0,-12.71875 -2.59375,0 0,-7.875 -4.46875,0 0,7.875 -2.5625,0 0,12.71875 -8.59375,0 0,-12.71875 -2.59375,0 0,-7.875 -4.46875,0 z m 7.5,27.3125 98.9375,0 25.21875,25.03125 0,98.9375 -25.21875,25.21875 -98.9375,0 -25.0625,-25.21875 0,-98.9375 25.0625,-25.03125 z"
       id="rect8159"
       inkscape:connector-curvature="0"
       inkscape:export-filename="/home/jacobian/.conky/themes/Sun/cpu.png"
       inkscape:export-xdpi="28.256937"
       inkscape:export-ydpi="28.256937" />
  </g>
  <g
     inkscape:groupmode="layer"
     id="layer8"
     inkscape:label="fan"
     style="display:inline">
    <path
       style="fill:#ffffff;fill-opacity:1;fill-rule:evenodd;stroke:none;opacity:1"
       d="m 64.5,56.96875 0,176.78125 176.78125,0 0,-176.78125 -176.78125,0 z m 18.09375,8.1875 c 5.46734,0 9.90625,4.43891 9.90625,9.90625 0,5.46734 -4.43891,9.90625 -9.90625,9.90625 -5.46734,0 -9.90625,-4.43891 -9.90625,-9.90625 0,-5.46734 4.43891,-9.90625 9.90625,-9.90625 z m 140.59375,0 c 5.46734,0 9.90625,4.43891 9.90625,9.90625 0,5.46734 -4.43891,9.90625 -9.90625,9.90625 -5.46734,0 -9.90625,-4.43891 -9.90625,-9.90625 0,-5.46734 4.43891,-9.90625 9.90625,-9.90625 z M 152.875,65.1875 c 44.26703,0 80.15625,35.88922 80.15625,80.15625 0,44.26703 -35.88922,80.15625 -80.15625,80.15625 -44.26703,0 -80.15625,-35.88922 -80.15625,-80.15625 0,-44.26703 35.88922,-80.15625 80.15625,-80.15625 z m -21.25,8.6875 C 117.2585,74.007797 94.988368,94.713755 99.25,99 c 4.3812,4.4065 15.2138,1.98715 40.03125,22.8125 -0.0248,0.0143 -0.0378,0.0481 -0.0625,0.0625 -0.0319,0.0187 -0.0619,0.0437 -0.0937,0.0625 -0.10313,0.0608 -0.21025,0.12537 -0.3125,0.1875 -0.0401,0.0243 -0.085,0.038 -0.125,0.0625 -0.19261,0.11801 -0.4051,0.2217 -0.59375,0.34375 -0.12738,0.0824 -0.24889,0.19658 -0.375,0.28125 -0.35792,0.24046 -0.71945,0.46399 -1.0625,0.71875 -0.12957,0.0964 -0.24699,0.21364 -0.375,0.3125 -0.023,0.0177 -0.0396,0.0448 -0.0625,0.0625 -0.11079,0.0859 -0.2346,0.16258 -0.34375,0.25 -0.0868,0.0699 -0.16403,0.1478 -0.25,0.21875 -0.0225,0.0186 -0.04,0.0439 -0.0625,0.0625 -0.0289,0.0239 -0.0651,0.0385 -0.0937,0.0625 -0.0399,0.0333 -0.0853,0.0602 -0.125,0.0937 -0.10878,0.0919 -0.20501,0.18752 -0.3125,0.28125 -0.0615,0.0535 -0.1266,0.10224 -0.1875,0.15625 -0.12912,0.11471 -0.24784,0.22632 -0.375,0.34375 -0.2442,0.22494 -0.48417,0.45488 -0.71875,0.6875 -0.0521,0.0518 -0.10457,0.10407 -0.15625,0.15625 -0.0206,0.0208 -0.0419,0.0416 -0.0625,0.0625 -0.009,0.01 -0.0219,0.0216 -0.0312,0.0312 -0.27888,0.28387 -0.5478,0.5806 -0.8125,0.875 -0.03,0.0335 -0.064,0.0601 -0.0937,0.0937 -0.0148,0.0166 -0.0165,0.0459 -0.0312,0.0625 -0.0388,0.0438 -0.0865,0.0809 -0.125,0.125 -0.15621,0.1787 -0.31772,0.34897 -0.46875,0.53125 -8.94084,-2.63699 -41.702083,-11.49471 -50,-2.25 -0.598967,0.66731 -1.122533,1.44736 -1.59375,2.28125 -7.068246,12.50815 -0.280314,42.1413 5.5625,40.59375 6.007685,-1.59124 9.323975,-12.1995 39.78125,-23.28125 -4e-5,0.0318 -7e-5,0.062 0,0.0937 0.001,0.39576 0.0127,0.79116 0.0312,1.1875 0.005,0.10406 -0.006,0.20875 0,0.3125 0.0116,0.19887 0.0465,0.39488 0.0625,0.59375 0.0311,0.39105 0.0775,0.77004 0.125,1.15625 0.009,0.0739 0.0216,0.14507 0.0312,0.21875 0.003,0.0209 -0.003,0.0416 0,0.0625 0.007,0.053 0.0239,0.10334 0.0312,0.15625 0.003,0.0208 -0.003,0.0417 0,0.0625 0.0283,0.19915 0.0611,0.39601 0.0937,0.59375 0.003,0.0202 -0.003,0.0423 0,0.0625 0.0176,0.10444 0.0437,0.20815 0.0625,0.3125 0.006,0.0324 0.0254,0.0615 0.0312,0.0937 0.0194,0.10573 0.0418,0.20688 0.0625,0.3125 0.0159,0.0816 0.0147,0.16869 0.0312,0.25 0.0194,0.0938 0.0421,0.18764 0.0625,0.28125 0.002,0.01 -0.002,0.0213 0,0.0312 0.0295,0.13508 0.0622,0.2714 0.0937,0.40625 0.0688,0.29489 0.14039,0.58389 0.21875,0.875 0.0109,0.0405 0.0203,0.0845 0.0312,0.125 0.006,0.0223 0.025,0.0402 0.0312,0.0625 0.003,0.009 -0.003,0.022 0,0.0312 0.0964,0.34645 0.20284,0.69052 0.3125,1.03125 0.01,0.0309 0.0212,0.063 0.0312,0.0937 0.003,0.01 -0.003,0.0217 0,0.0312 0.0133,0.0404 0.0178,0.0846 0.0312,0.125 0.0279,0.0844 0.065,0.16602 0.0937,0.25 0.0181,0.0527 0.044,0.10365 0.0625,0.15625 0.0428,0.12223 0.0805,0.25357 0.125,0.375 0.0117,0.0318 0.0195,0.062 0.0312,0.0937 -6.75412,6.4245 -30.794692,30.37894 -26.9375,42.1875 0.27843,0.85238 0.66969,1.70622 1.15625,2.53125 7.29826,12.37536 36.35631,21.30255 37.9375,15.46875 1.62576,-5.99833 -5.88107,-14.17733 -0.25,-46.09375 0.0155,0.009 0.047,-0.009 0.0625,0 0.0111,0.006 0.0203,0.0249 0.0312,0.0312 0.11464,0.0656 0.22856,0.12379 0.34375,0.1875 0.0205,0.0113 0.042,0.02 0.0625,0.0312 0.1972,0.10859 0.3936,0.20871 0.59375,0.3125 0.0125,0.006 0.0188,0.0248 0.0312,0.0312 0.0126,0.007 0.0187,0.0248 0.0312,0.0312 0.13302,0.0685 0.27259,0.12142 0.40625,0.1875 0.0762,0.0376 0.14212,0.0881 0.21875,0.125 0.0508,0.0244 0.10533,0.0384 0.15625,0.0625 0.0837,0.0398 0.16585,0.086 0.25,0.125 0.05,0.0231 0.1061,0.0397 0.15625,0.0625 0.0346,0.0158 0.0591,0.0469 0.0937,0.0625 0.017,0.008 0.0455,-0.008 0.0625,0 0.11544,0.0514 0.22765,0.10647 0.34375,0.15625 0.11582,0.0499 0.2271,0.10792 0.34375,0.15625 0.0215,0.009 0.041,0.0224 0.0625,0.0312 0.0302,0.0125 0.0635,0.0189 0.0937,0.0312 0.0436,0.0177 0.0813,0.045 0.125,0.0625 0.0512,0.0205 0.10493,0.0423 0.15625,0.0625 0.0828,0.0326 0.16701,0.062 0.25,0.0937 0.0608,0.0232 0.12653,0.0397 0.1875,0.0625 0.0534,0.02 0.10265,0.0429 0.15625,0.0625 0.0519,0.0191 0.10416,0.0437 0.15625,0.0625 0.0395,0.0143 0.0854,0.0171 0.125,0.0312 0.0925,0.0329 0.18852,0.0619 0.28125,0.0937 0.0314,0.0108 0.0624,0.0206 0.0937,0.0312 0.0123,0.004 0.0189,0.0272 0.0312,0.0312 0.0306,0.0103 0.0633,0.0212 0.0937,0.0312 0.16691,0.0555 0.33166,0.10389 0.5,0.15625 0.0417,0.013 0.0833,0.0185 0.125,0.0312 0.0411,0.0126 0.0838,0.0189 0.125,0.0312 0.18023,0.0543 0.35043,0.13712 0.53125,0.1875 0.0406,0.0113 0.0843,0.0202 0.125,0.0312 0.061,0.0166 0.12635,0.0151 0.1875,0.0312 0.0223,0.006 0.0402,0.0255 0.0625,0.0312 0.0413,0.0109 0.0837,0.0206 0.125,0.0312 0.0317,0.008 0.062,0.0232 0.0937,0.0312 0.23597,0.06 0.482,0.10281 0.71875,0.15625 0.17687,0.0399 0.35309,0.0886 0.53125,0.125 0.29893,0.0612 0.60645,0.10542 0.90625,0.15625 0.001,2.5e-4 -10e-4,0.031 0,0.0312 2.19576,9.09341 10.91751,41.84453 23.0625,44.40625 0.87739,0.18506 1.79223,0.25886 2.75,0.25 14.3665,-0.1328 36.63663,-20.83875 32.375,-25.125 -4.3812,-4.4065 -15.21381,-1.98715 -40.03125,-22.8125 0.0249,-0.0144 0.0376,-0.048 0.0625,-0.0625 0.04,-0.0232 0.0851,-0.0391 0.125,-0.0625 0.0969,-0.0571 0.18534,-0.12937 0.28125,-0.1875 0.0402,-0.0244 0.0849,-0.0379 0.125,-0.0625 0.0642,-0.0393 0.12357,-0.0851 0.1875,-0.125 0.0967,-0.0606 0.18532,-0.12571 0.28125,-0.1875 0.0318,-0.0204 0.062,-0.042 0.0937,-0.0625 0.17852,-0.11534 0.35522,-0.22403 0.53125,-0.34375 0.10423,-0.071 0.20917,-0.14621 0.3125,-0.21875 0.0118,-0.008 0.0196,-0.023 0.0312,-0.0312 0.0115,-0.008 0.0198,-0.0231 0.0312,-0.0312 0.007,-0.005 0.0246,0.005 0.0312,0 0.0679,-0.0481 0.15128,-0.0763 0.21875,-0.125 0.15652,-0.11289 0.31526,-0.22801 0.46875,-0.34375 0.0761,-0.0575 0.14323,-0.12918 0.21875,-0.1875 0.0234,-0.018 0.0392,-0.0444 0.0625,-0.0625 0.0297,-0.023 0.0642,-0.0394 0.0937,-0.0625 0.0814,-0.0639 0.16922,-0.12264 0.25,-0.1875 0.0871,-0.0698 0.1639,-0.14804 0.25,-0.21875 0.04,-0.033 0.0852,-0.0606 0.125,-0.0937 0.0113,-0.009 0.0199,-0.0219 0.0312,-0.0312 0.0113,-0.009 0.02,-0.0219 0.0312,-0.0312 0.0225,-0.0188 0.0401,-0.0436 0.0625,-0.0625 0.0335,-0.0283 0.0605,-0.0653 0.0937,-0.0937 0.006,-0.005 0.0255,0.005 0.0312,0 0.13425,-0.11471 0.27401,-0.22618 0.40625,-0.34375 0.4332,-0.38417 0.84586,-0.77994 1.25,-1.1875 0.0313,-0.0316 0.0625,-0.0619 0.0937,-0.0937 0.19334,-0.19722 0.37454,-0.38983 0.5625,-0.59375 0.0546,-0.0591 0.10223,-0.12794 0.15625,-0.1875 0.0197,-0.0217 0.0429,-0.0407 0.0625,-0.0625 0.0146,-0.0162 0.0168,-0.0463 0.0312,-0.0625 0.0243,-0.0271 0.0696,-0.0353 0.0937,-0.0625 0.0148,-0.0167 0.0165,-0.0458 0.0312,-0.0625 0.0246,-0.0278 0.038,-0.0659 0.0625,-0.0937 0.009,-0.0108 0.0219,-0.0205 0.0312,-0.0312 0.01,-0.0111 0.0216,-0.0203 0.0312,-0.0312 0.1253,-0.144 0.28363,-0.25913 0.40625,-0.40625 0.0243,-0.0291 0.0383,-0.0645 0.0625,-0.0937 8.94084,2.637 41.70209,11.46346 50,2.21875 0.59896,-0.66731 1.12254,-1.41611 1.59375,-2.25 7.06824,-12.50815 0.28031,-42.14131 -5.5625,-40.59375 -6.00768,1.59123 -9.32396,12.19949 -39.78125,23.28125 0,-0.0312 1.1e-4,-0.0626 0,-0.0937 -4.8e-4,-0.20645 -0.026,-0.41835 -0.0312,-0.625 -0.005,-0.18619 0.009,-0.37726 0,-0.5625 -0.009,-0.19589 -0.018,-0.39781 -0.0312,-0.59375 -0.0135,-0.19925 -0.0447,-0.3957 -0.0625,-0.59375 -0.01,-0.10602 -0.0205,-0.2065 -0.0312,-0.3125 -0.0141,-0.13858 -0.0463,-0.26829 -0.0625,-0.40625 -0.005,-0.0413 0.005,-0.0837 0,-0.125 -0.001,-0.0105 0.001,-0.0208 0,-0.0312 -0.005,-0.0423 -0.0258,-0.0827 -0.0312,-0.125 -0.007,-0.0513 0.007,-0.10499 0,-0.15625 -0.0221,-0.16426 -0.0374,-0.33591 -0.0625,-0.5 -0.0271,-0.17738 -0.0633,-0.35501 -0.0937,-0.53125 -0.009,-0.052 -0.022,-0.10424 -0.0312,-0.15625 -0.008,-0.0425 -0.0234,-0.0825 -0.0312,-0.125 -0.0324,-0.17733 -0.058,-0.35514 -0.0937,-0.53125 -0.0897,-0.43558 -0.20063,-0.87943 -0.3125,-1.3125 -0.0212,-0.0824 -0.0405,-0.16791 -0.0625,-0.25 -0.0111,-0.0414 -0.02,-0.0837 -0.0312,-0.125 -0.0113,-0.0413 -0.0198,-0.0837 -0.0312,-0.125 -0.0115,-0.0413 -0.0197,-0.0838 -0.0312,-0.125 -0.0983,-0.34766 -0.23211,-0.6894 -0.34375,-1.03125 -0.0988,-0.30322 -0.17221,-0.60782 -0.28125,-0.90625 -0.0148,-0.0404 -0.0163,-0.0847 -0.0312,-0.125 6.78764,-6.45898 30.79004,-30.3932 26.9375,-42.1875 -0.27842,-0.852366 -0.66969,-1.674973 -1.15625,-2.5 -7.29625,-12.373655 -36.38657,-21.301705 -37.96775,-15.4679 -1.62577,5.998333 5.8811,14.177225 0.25,46.09375 -0.0729,-0.0421 -0.14538,-0.0835 -0.21875,-0.125 -0.0407,-0.023 -0.0842,-0.0397 -0.125,-0.0625 -0.0455,-0.0254 -0.0794,-0.0687 -0.125,-0.0937 -0.0412,-0.0225 -0.0837,-0.0402 -0.125,-0.0625 -0.15591,-0.0849 -0.31101,-0.16813 -0.46875,-0.25 -0.008,-0.004 -0.0231,0.004 -0.0312,0 -0.14371,-0.0744 -0.29231,-0.14685 -0.4375,-0.21875 -0.0333,-0.0164 -0.0605,-0.0462 -0.0937,-0.0625 -0.17464,-0.0856 -0.35453,-0.16808 -0.53125,-0.25 -0.26873,-0.12455 -0.5415,-0.25996 -0.8125,-0.375 -0.0922,-0.039 -0.18858,-0.0559 -0.28125,-0.0937 -0.0216,-0.009 -0.0408,-0.0225 -0.0625,-0.0312 -0.23988,-0.0981 -0.47732,-0.1905 -0.71875,-0.28125 -0.053,-0.0198 -0.10311,-0.043 -0.15625,-0.0625 -0.0911,-0.0333 -0.18973,-0.0614 -0.28125,-0.0937 -0.0934,-0.0332 -0.18755,-0.0617 -0.28125,-0.0937 -0.041,-0.0141 -0.084,-0.0174 -0.125,-0.0312 -0.20119,-0.0679 -0.39047,-0.15552 -0.59375,-0.21875 -0.0505,-0.0157 -0.10557,-0.0159 -0.15625,-0.0312 -0.13666,-0.0419 -0.26924,-0.0853 -0.40625,-0.125 -0.054,-0.0155 -0.10216,-0.0473 -0.15625,-0.0625 -0.0727,-0.0204 -0.14579,-0.0427 -0.21875,-0.0625 -0.0513,-0.0139 -0.10479,-0.0177 -0.15625,-0.0312 -0.0226,-0.006 -0.0399,-0.0254 -0.0625,-0.0312 -0.041,-0.0108 -0.0839,-0.0208 -0.125,-0.0312 -0.11441,-0.0296 -0.22914,-0.0344 -0.34375,-0.0625 -0.15736,-0.0383 -0.31033,-0.0894 -0.46875,-0.125 -0.1131,-0.0255 -0.23012,-0.0384 -0.34375,-0.0625 -0.0522,-0.011 -0.10399,-0.0206 -0.15625,-0.0312 -0.15679,-0.0322 -0.31099,-0.0643 -0.46875,-0.0937 -0.15633,-0.0294 -0.31221,-0.0673 -0.46875,-0.0937 -2.18671,-9.06149 -10.90739,-41.873657 -23.0625,-44.4375 -0.87738,-0.185064 -1.79223,-0.258853 -2.75,-0.25 z m 21.25,51.34375 c 0.42234,1e-4 0.86095,0.005 1.28125,0.0312 0.0517,0.003 0.10467,-0.004 0.15625,0 0.0842,0.006 0.1658,0.0243 0.25,0.0312 0.42315,0.0353 0.83065,0.0945 1.25,0.15625 0.36593,0.0537 0.72938,0.11315 1.09375,0.1875 0.13308,0.0271 0.27377,0.0327 0.40625,0.0625 0.0222,0.005 0.0403,0.0263 0.0625,0.0312 0.0828,0.0189 0.16748,0.0426 0.25,0.0625 0.1536,0.0373 0.31563,0.0528 0.46875,0.0937 0.0631,0.0169 0.12449,0.0449 0.1875,0.0625 0.12541,0.0349 0.24997,0.0875 0.375,0.125 0.17639,0.0525 0.35631,0.0989 0.53125,0.15625 0.01,0.003 0.0217,-0.003 0.0312,0 0.009,0.003 0.022,-0.003 0.0312,0 0.1384,0.0461 0.26921,0.10725 0.40625,0.15625 0.15892,0.0568 0.3117,0.12683 0.46875,0.1875 0.15365,0.0594 0.31694,0.0933 0.46875,0.15625 0.11594,0.0477 0.22866,0.10638 0.34375,0.15625 0.15083,0.066 0.28862,0.14924 0.4375,0.21875 0.0503,0.0234 0.10608,0.0386 0.15625,0.0625 0.12703,0.0606 0.24946,0.12432 0.375,0.1875 0.0209,0.0104 0.0416,0.0208 0.0625,0.0312 0.0293,0.0149 0.0645,0.0162 0.0937,0.0312 0.0333,0.017 0.0607,0.0453 0.0937,0.0625 0.0332,0.0173 0.0608,0.0451 0.0937,0.0625 0.23452,0.12264 0.45756,0.24297 0.6875,0.375 0.30855,0.17858 0.63957,0.33706 0.9375,0.53125 0.27814,0.18026 0.54269,0.39923 0.8125,0.59375 0.10456,0.0754 0.20977,0.14163 0.3125,0.21875 0.16794,0.12679 0.33621,0.24313 0.5,0.375 0.0639,0.0514 0.12426,0.10405 0.1875,0.15625 0.062,0.051 0.12603,0.10441 0.1875,0.15625 0.0741,0.0624 0.14542,0.12394 0.21875,0.1875 0.30957,0.26937 0.61371,0.55623 0.90625,0.84375 0.0313,0.0308 0.0627,0.0628 0.0937,0.0937 0.19379,0.19253 0.37766,0.39445 0.5625,0.59375 0.01,0.0107 0.0214,0.0205 0.0312,0.0312 0.0201,0.0217 0.0425,0.0407 0.0625,0.0625 0.0992,0.10841 0.18441,0.23318 0.28125,0.34375 0.23413,0.26756 0.46905,0.53431 0.6875,0.8125 0.0272,0.0346 0.0668,0.0591 0.0937,0.0937 0.0555,0.0714 0.10173,0.14654 0.15625,0.21875 0.0225,0.0299 0.0402,0.0639 0.0625,0.0937 0.0579,0.0776 0.13069,0.14029 0.1875,0.21875 0.0134,0.0185 0.018,0.0439 0.0312,0.0625 0.0356,0.0496 0.0587,0.10635 0.0937,0.15625 0.1029,0.14662 0.21375,0.28846 0.3125,0.4375 0.0421,0.0635 0.0835,0.12333 0.125,0.1875 0.0935,0.14386 0.19135,0.29113 0.28125,0.4375 0.18634,0.30339 0.3608,0.62378 0.53125,0.9375 0.18974,0.34922 0.36194,0.70121 0.53125,1.0625 0.0837,0.17858 0.17145,0.34986 0.25,0.53125 0.0225,0.0519 0.0405,0.10415 0.0625,0.15625 0.0753,0.17768 0.14897,0.35237 0.21875,0.53125 0.0323,0.083 0.0625,0.16651 0.0937,0.25 0.003,0.009 -0.003,0.0221 0,0.0312 0.0265,0.071 0.0368,0.1474 0.0625,0.21875 0.18902,0.52673 0.3865,1.05354 0.53125,1.59375 0.15587,0.58173 0.27143,1.18753 0.375,1.78125 0.007,0.0424 0.0242,0.0826 0.0312,0.125 0.009,0.0526 0.0231,0.10364 0.0312,0.15625 0.0633,0.39579 0.0853,0.78805 0.125,1.1875 0.0386,0.39841 0.079,0.78914 0.0937,1.1875 7.6e-4,0.0206 -7e-4,0.0419 0,0.0625 0.005,0.14648 0.0292,0.29024 0.0312,0.4375 8e-4,0.0514 -4.1e-4,0.10478 0,0.15625 1.3e-4,0.021 -6e-5,0.0415 0,0.0625 3.2e-4,0.3456 -0.0139,0.68692 -0.0312,1.03125 -0.001,0.0313 0.002,0.0625 0,0.0937 -0.001,0.0207 0.001,0.0418 0,0.0625 -0.0165,0.30475 -0.0634,0.60157 -0.0937,0.90625 -0.044,0.42479 -0.0856,0.86073 -0.15625,1.28125 -0.0944,0.56236 -0.2024,1.13555 -0.34375,1.6875 -0.003,0.01 0.003,0.0214 0,0.0312 -0.0243,0.0945 -0.068,0.18709 -0.0937,0.28125 -0.0617,0.22613 -0.11816,0.46461 -0.1875,0.6875 -0.11145,0.35814 -0.24376,0.71085 -0.375,1.0625 -0.0985,0.26305 -0.20348,0.52354 -0.3125,0.78125 -0.009,0.0214 -0.0222,0.0411 -0.0312,0.0625 -0.24783,0.58012 -0.51332,1.13685 -0.8125,1.6875 -0.0975,0.17948 -0.20975,0.35512 -0.3125,0.53125 -0.007,0.0124 -0.024,0.0189 -0.0312,0.0312 -0.004,0.007 0.004,0.0242 0,0.0312 -0.0656,0.11158 -0.11982,0.23356 -0.1875,0.34375 -0.0825,0.13431 -0.16447,0.27405 -0.25,0.40625 -0.073,0.11288 -0.14354,0.23243 -0.21875,0.34375 -0.15809,0.23441 -0.33159,0.45927 -0.5,0.6875 -0.12514,0.16924 -0.24475,0.33487 -0.375,0.5 -0.0743,0.0941 -0.14287,0.18849 -0.21875,0.28125 -0.25621,0.31386 -0.53589,0.60669 -0.8125,0.90625 -0.02,0.0217 -0.0424,0.0409 -0.0625,0.0625 -0.11628,0.12483 -0.22473,0.2536 -0.34375,0.375 -0.0921,0.0941 -0.18737,0.18898 -0.28125,0.28125 -0.25082,0.24651 -0.51787,0.48553 -0.78125,0.71875 -0.0495,0.0439 -0.10628,0.0816 -0.15625,0.125 -0.15222,0.13162 -0.28185,0.27966 -0.4375,0.40625 -0.07,0.0572 -0.148,0.0999 -0.21875,0.15625 -0.0232,0.0183 -0.0393,0.0443 -0.0625,0.0625 -0.19485,0.15369 -0.39319,0.29094 -0.59375,0.4375 -0.0189,0.0138 -0.0435,0.0175 -0.0625,0.0312 -0.0117,0.008 -0.0197,0.0229 -0.0312,0.0312 -0.17069,0.12327 -0.32535,0.257 -0.5,0.375 -0.0501,0.0337 -0.1058,0.0606 -0.15625,0.0937 -0.0501,0.0332 -0.10582,0.061 -0.15625,0.0937 -0.0319,0.0206 -0.0618,0.0421 -0.0937,0.0625 -0.10125,0.065 -0.21002,0.12426 -0.3125,0.1875 -0.02,0.0123 -0.0424,0.019 -0.0625,0.0312 -0.0514,0.0315 -0.10459,0.0627 -0.15625,0.0937 -0.35476,0.21122 -0.7278,0.40524 -1.09375,0.59375 -0.16618,0.0863 -0.33115,0.16826 -0.5,0.25 -0.41946,0.20166 -0.84975,0.39056 -1.28125,0.5625 -0.0734,0.0292 -0.14504,0.0654 -0.21875,0.0937 -0.0649,0.025 -0.12232,0.0693 -0.1875,0.0937 -0.0618,0.0231 -0.12545,0.04 -0.1875,0.0625 -0.0712,0.0259 -0.14713,0.0374 -0.21875,0.0625 -0.39154,0.13685 -0.78851,0.26246 -1.1875,0.375 -0.0218,0.006 -0.0407,0.0252 -0.0625,0.0312 -0.0631,0.0176 -0.12429,0.0456 -0.1875,0.0625 -0.11171,0.0299 -0.23178,0.0346 -0.34375,0.0625 -0.1481,0.0369 -0.28859,0.0914 -0.4375,0.125 -0.13453,0.0303 -0.27111,0.0349 -0.40625,0.0625 -0.34416,0.0702 -0.68567,0.13571 -1.03125,0.1875 -0.38077,0.0573 -0.77225,0.0894 -1.15625,0.125 -0.30967,0.0282 -0.62784,0.0487 -0.9375,0.0625 -0.30274,0.0139 -0.60255,0.0311 -0.90625,0.0312 -0.28277,-1.8e-4 -0.5618,-0.0192 -0.84375,-0.0312 -0.49279,-0.0205 -0.97621,-0.0367 -1.46875,-0.0937 -0.0735,-0.009 -0.14545,-0.022 -0.21875,-0.0312 -0.0311,-0.004 -0.0627,0.004 -0.0937,0 -0.0942,-0.0125 -0.18728,-0.0486 -0.28125,-0.0625 -0.50144,-0.0736 -1.00178,-0.13755 -1.5,-0.25 -0.083,-0.0187 -0.16712,-0.0427 -0.25,-0.0625 -0.0316,-0.008 -0.0623,-0.0237 -0.0937,-0.0312 -0.15567,-0.038 -0.31403,-0.0522 -0.46875,-0.0937 -0.054,-0.0146 -0.10237,-0.0475 -0.15625,-0.0625 -0.01,-0.003 -0.0217,0.003 -0.0312,0 -0.41184,-0.11531 -0.81482,-0.26506 -1.21875,-0.40625 -0.12424,-0.0434 -0.25159,-0.0791 -0.375,-0.125 -0.0183,-0.007 -0.0442,0.007 -0.0625,0 -0.074,-0.0276 -0.14508,-0.0653 -0.21875,-0.0937 -0.0125,-0.005 -0.0188,-0.0265 -0.0312,-0.0312 -0.052,-0.0202 -0.10438,-0.0418 -0.15625,-0.0625 -0.1217,-0.0489 -0.25448,-0.0738 -0.375,-0.125 -0.0563,-0.0238 -0.10021,-0.0694 -0.15625,-0.0937 -0.0298,-0.013 -0.0641,-0.0181 -0.0937,-0.0312 -0.0125,-0.005 -0.0188,-0.0257 -0.0312,-0.0312 -0.009,-0.004 -0.0223,0.004 -0.0312,0 -0.10492,-0.0467 -0.20806,-0.10759 -0.3125,-0.15625 -0.0512,-0.0238 -0.10534,-0.0383 -0.15625,-0.0625 -0.11385,-0.0538 -0.23085,-0.10032 -0.34375,-0.15625 -0.0829,-0.0413 -0.16747,-0.0824 -0.25,-0.125 -0.0332,-0.0172 -0.0607,-0.0452 -0.0937,-0.0625 -0.0204,-0.0107 -0.0421,-0.0205 -0.0625,-0.0312 -0.19125,-0.10029 -0.37429,-0.20595 -0.5625,-0.3125 -0.0406,-0.0232 -0.0845,-0.0391 -0.125,-0.0625 -0.11206,-0.0647 -0.20215,-0.15224 -0.3125,-0.21875 -0.0482,-0.0289 -0.10831,-0.0331 -0.15625,-0.0625 -0.0638,-0.0391 -0.12412,-0.0852 -0.1875,-0.125 -0.0713,-0.0451 -0.14805,-0.0791 -0.21875,-0.125 -0.25724,-0.16643 -0.50276,-0.35499 -0.75,-0.53125 -0.0306,-0.0218 -0.0634,-0.0405 -0.0937,-0.0625 -0.1046,-0.0754 -0.20972,-0.14159 -0.3125,-0.21875 -0.0187,-0.014 -0.0439,-0.0172 -0.0625,-0.0312 -0.0417,-0.0315 -0.0835,-0.0619 -0.125,-0.0937 -0.0116,-0.009 -0.0197,-0.0223 -0.0312,-0.0312 -0.0649,-0.0503 -0.12328,-0.10514 -0.1875,-0.15625 -0.0815,-0.0646 -0.16967,-0.12185 -0.25,-0.1875 -0.0171,-0.014 -0.0455,-0.0172 -0.0625,-0.0312 -0.44655,-0.36936 -0.86828,-0.78161 -1.28125,-1.1875 -0.0413,-0.0405 -0.0841,-0.0842 -0.125,-0.125 -0.51314,-0.51314 -1.01308,-1.05921 -1.46875,-1.625 -0.009,-0.0113 -0.0223,-0.0199 -0.0312,-0.0312 -0.0329,-0.0411 -0.0611,-0.0836 -0.0937,-0.125 -0.0232,-0.0294 -0.0395,-0.0643 -0.0625,-0.0937 -0.0736,-0.0946 -0.14692,-0.18548 -0.21875,-0.28125 -0.12161,-0.16214 -0.22739,-0.33464 -0.34375,-0.5 -0.52937,-0.7491 -1.01256,-1.5241 -1.4375,-2.34375 -0.0172,-0.0332 -0.0455,-0.0606 -0.0625,-0.0937 -0.0147,-0.0287 -0.0168,-0.0651 -0.0312,-0.0937 -0.0106,-0.0209 -0.0207,-0.0416 -0.0312,-0.0625 -0.031,-0.062 -0.0634,-0.12524 -0.0937,-0.1875 -0.0144,-0.0296 -0.0171,-0.0642 -0.0312,-0.0937 -0.23597,-0.49082 -0.46103,-0.99291 -0.65625,-1.5 -0.0286,-0.0742 -0.0661,-0.14424 -0.0937,-0.21875 -0.0344,-0.0928 -0.0608,-0.18783 -0.0937,-0.28125 -0.041,-0.11597 -0.086,-0.22681 -0.125,-0.34375 -0.11121,-0.33229 -0.21868,-0.66251 -0.3125,-1 -0.0174,-0.0625 -0.0146,-0.12495 -0.0312,-0.1875 -0.1472,-0.54937 -0.27442,-1.09609 -0.375,-1.65625 -0.002,-0.01 0.002,-0.0215 0,-0.0312 -0.0239,-0.13491 -0.0728,-0.27115 -0.0937,-0.40625 -0.005,-0.0306 0.005,-0.0633 0,-0.0937 -0.002,-0.01 0.001,-0.0214 0,-0.0312 -0.0537,-0.36054 -0.0908,-0.73031 -0.125,-1.09375 -0.0118,-0.12586 -0.0219,-0.24911 -0.0312,-0.375 -0.003,-0.0423 -0.0283,-0.0827 -0.0312,-0.125 -0.001,-0.0208 0.001,-0.0417 0,-0.0625 -0.001,-0.0208 0.001,-0.0417 0,-0.0625 -0.004,-0.073 0.004,-0.14573 0,-0.21875 -0.002,-0.0415 0.002,-0.0834 0,-0.125 -0.0114,-0.2401 -0.0285,-0.478 -0.0312,-0.71875 -5.8e-4,-0.063 0,-0.12432 0,-0.1875 3e-5,-0.0523 -4.4e-4,-0.10398 0,-0.15625 10e-4,-0.17904 0.0252,-0.35335 0.0312,-0.53125 0.004,-0.11304 -0.006,-0.23087 0,-0.34375 0.004,-0.083 -0.005,-0.1673 0,-0.25 0.003,-0.0411 -0.003,-0.0839 0,-0.125 0.004,-0.0526 0.0272,-0.10374 0.0312,-0.15625 0.10226,-1.2993 0.30835,-2.59199 0.65625,-3.84375 0.006,-0.0218 0.0251,-0.0407 0.0312,-0.0625 0.003,-0.01 -0.003,-0.0215 0,-0.0312 0.003,-0.009 -0.003,-0.0219 0,-0.0312 0.0115,-0.0406 0.0196,-0.0845 0.0312,-0.125 0.0338,-0.11565 0.089,-0.22844 0.125,-0.34375 0.003,-0.009 -0.003,-0.022 0,-0.0312 0.0947,-0.30288 0.2353,-0.57844 0.34375,-0.875 0.018,-0.0495 0.0128,-0.1069 0.0312,-0.15625 0.008,-0.0218 0.0231,-0.0407 0.0312,-0.0625 0.13881,-0.36805 0.27725,-0.73391 0.4375,-1.09375 0.004,-0.008 -0.004,-0.023 0,-0.0312 0.006,-0.0129 0.0255,-0.0185 0.0312,-0.0312 0.01,-0.0214 0.0215,-0.0411 0.0312,-0.0625 0.0422,-0.0922 0.0813,-0.18941 0.125,-0.28125 0.054,-0.11432 0.10009,-0.23038 0.15625,-0.34375 0.058,-0.11636 0.127,-0.22806 0.1875,-0.34375 0.028,-0.0536 0.0652,-0.1028 0.0937,-0.15625 0.0196,-0.0368 0.0114,-0.0883 0.0312,-0.125 0.007,-0.0125 0.0246,-0.0188 0.0312,-0.0312 0.0292,-0.0538 0.0642,-0.10275 0.0937,-0.15625 0.0524,-0.0941 0.10219,-0.18762 0.15625,-0.28125 0.004,-0.008 -0.004,-0.0237 0,-0.0312 0.0619,-0.10715 0.12398,-0.20692 0.1875,-0.3125 0.0266,-0.0439 0.0668,-0.0813 0.0937,-0.125 0.0586,-0.0957 0.12726,-0.18649 0.1875,-0.28125 0.10624,-0.16684 0.20153,-0.33654 0.3125,-0.5 0.05,-0.0739 0.10539,-0.14572 0.15625,-0.21875 0.0644,-0.0924 0.12146,-0.18986 0.1875,-0.28125 0.0791,-0.10972 0.16898,-0.20479 0.25,-0.3125 0.10397,-0.13771 0.20511,-0.27132 0.3125,-0.40625 0.30704,-0.38655 0.63131,-0.75956 0.96875,-1.125 0.14452,-0.15651 0.28748,-0.31637 0.4375,-0.46875 0.0354,-0.0361 0.0582,-0.0892 0.0937,-0.125 0.0157,-0.0157 0.0467,-0.0155 0.0625,-0.0312 0.0314,-0.0312 0.0622,-0.0627 0.0937,-0.0937 0.41297,-0.40589 0.8347,-0.81814 1.28125,-1.1875 0.0405,-0.0334 0.0842,-0.0607 0.125,-0.0937 0.0226,-0.0183 0.0398,-0.0443 0.0625,-0.0625 0.077,-0.062 0.17212,-0.0954 0.25,-0.15625 0.17718,-0.13878 0.34938,-0.27334 0.53125,-0.40625 0.0187,-0.0137 0.0438,-0.0178 0.0625,-0.0312 0.0305,-0.022 0.0633,-0.0407 0.0937,-0.0625 0.24724,-0.17626 0.49276,-0.36482 0.75,-0.53125 0.0242,-0.0157 0.0382,-0.0469 0.0625,-0.0625 0.0779,-0.0499 0.17154,-0.0763 0.25,-0.125 0.012,-0.007 0.0192,-0.0239 0.0312,-0.0312 0.0256,-0.0158 0.0369,-0.0468 0.0625,-0.0625 0.0981,-0.0603 0.21326,-0.0976 0.3125,-0.15625 0.052,-0.0306 0.10396,-0.0636 0.15625,-0.0937 0.0123,-0.007 0.019,-0.0242 0.0312,-0.0312 0.14669,-0.0844 0.2896,-0.16966 0.4375,-0.25 0.0607,-0.033 0.12645,-0.0614 0.1875,-0.0937 0.0285,-0.015 0.0652,-0.0165 0.0937,-0.0312 0.0542,-0.0282 0.1018,-0.0661 0.15625,-0.0937 0.062,-0.0317 0.12529,-0.0627 0.1875,-0.0937 0.042,-0.0208 0.0829,-0.042 0.125,-0.0625 0.11372,-0.0557 0.22884,-0.1026 0.34375,-0.15625 0.0298,-0.0139 0.0639,-0.0175 0.0937,-0.0312 0.10504,-0.0485 0.20699,-0.1097 0.3125,-0.15625 0.0847,-0.0374 0.16468,-0.0888 0.25,-0.125 0.0695,-0.0294 0.14887,-0.0339 0.21875,-0.0625 0.11567,-0.0476 0.22758,-0.11094 0.34375,-0.15625 0.009,-0.004 0.0222,0.004 0.0312,0 0.16605,-0.0644 0.33186,-0.12739 0.5,-0.1875 0.13785,-0.0493 0.26782,-0.11011 0.40625,-0.15625 0.0409,-0.0136 0.0841,-0.0179 0.125,-0.0312 0.27996,-0.0913 0.56016,-0.17103 0.84375,-0.25 0.063,-0.0176 0.1244,-0.0456 0.1875,-0.0625 0.15457,-0.0414 0.31323,-0.056 0.46875,-0.0937 0.10484,-0.0255 0.20746,-0.07 0.3125,-0.0937 0.0199,-0.004 0.0426,0.004 0.0625,0 0.47815,-0.10636 0.95643,-0.17941 1.4375,-0.25 0.50323,-0.074 0.9915,-0.15154 1.5,-0.1875 0.0516,-0.004 0.10456,0.003 0.15625,0 0.41006,-0.0259 0.83799,-0.0306 1.25,-0.0312 z M 82.59375,205.75 c 5.46734,0 9.90625,4.43891 9.90625,9.90625 0,5.46734 -4.43891,9.90625 -9.90625,9.90625 -5.46734,0 -9.90625,-4.43891 -9.90625,-9.90625 0,-5.46734 4.43891,-9.90625 9.90625,-9.90625 z m 140.59375,0 c 5.46734,0 9.90625,4.43891 9.90625,9.90625 0,5.46734 -4.43891,9.90625 -9.90625,9.90625 -5.46734,0 -9.90625,-4.43891 -9.90625,-9.90625 0,-5.46734 4.43891,-9.90625 9.90625,-9.90625 z"
       id="rect3016"
       inkscape:export-xdpi="90"
       inkscape:export-ydpi="90"
       inkscape:connector-curvature="0"
       inkscape:export-filename="/home/jacobian/.conky/themes/Sun/fan.png" />
  </g>
</svg>
