<?xml version="1.0" encoding="UTF-8" standalone="no"?>
<!-- Created with Inkscape (http://www.inkscape.org/) -->

<svg
   xmlns:dc="http://purl.org/dc/elements/1.1/"
   xmlns:cc="http://creativecommons.org/ns#"
   xmlns:rdf="http://www.w3.org/1999/02/22-rdf-syntax-ns#"
   xmlns:svg="http://www.w3.org/2000/svg"
   xmlns="http://www.w3.org/2000/svg"
   xmlns:sodipodi="http://sodipodi.sourceforge.net/DTD/sodipodi-0.dtd"
   xmlns:inkscape="http://www.inkscape.org/namespaces/inkscape"
   width="384"
   height="128"
   id="svg2"
   version="1.1"
   inkscape:version="0.91 r13725"
   sodipodi:docname="player.svg"
   inkscape:export-filename="/home/jacobian/.conky/img/2/play.png"
   inkscape:export-xdpi="90"
   inkscape:export-ydpi="90">
  <defs
     id="defs4" />
  <sodipodi:namedview
     id="base"
     pagecolor="#ffffff"
     bordercolor="#666666"
     borderopacity="1.0"
     inkscape:pageopacity="0.0"
     inkscape:pageshadow="2"
     inkscape:zoom="1.6625"
     inkscape:cx="170.34497"
     inkscape:cy="19.75106"
     inkscape:document-units="px"
     inkscape:current-layer="layer1"
     showgrid="false"
     inkscape:showpageshadow="false"
     inkscape:window-width="1286"
     inkscape:window-height="775"
     inkscape:window-x="438"
     inkscape:window-y="190"
     inkscape:window-maximized="0" />
  <metadata
     id="metadata7">
    <rdf:RDF>
      <cc:Work
         rdf:about="">
        <dc:format>image/svg+xml</dc:format>
        <dc:type
           rdf:resource="http://purl.org/dc/dcmitype/StillImage" />
        <dc:title />
      </cc:Work>
    </rdf:RDF>
  </metadata>
  <g
     inkscape:label="Capa 1"
     inkscape:groupmode="layer"
     id="layer1"
     transform="translate(0,-924.36218)">
    <path
       style="fill:#ffffff;fill-opacity:1;fill-rule:evenodd;stroke:none"
       d="M 64,0 C 28.653777,0 0,28.653777 0,64 0,99.346223 28.653777,128 64,128 99.346223,128 128,99.346223 128,64 128,28.653777 99.346223,0 64,0 z M 44.4375,33.375 97.5,64 44.4375,94.625 l 0,-61.25 z"
       transform="translate(0,924.36218)"
       id="path2985"
       inkscape:export-filename="/home/jacobian/.conky/themes/Sun/play.png"
       inkscape:export-xdpi="90"
       inkscape:export-ydpi="90"
       inkscape:connector-curvature="0" />
    <path
       style="fill:#ffffff;fill-opacity:1;fill-rule:evenodd;stroke:none"
       d="M 192 0 C 156.65378 0 128 28.65378 128 64 C 128 99.34622 156.65378 128 192 128 C 227.34622 128 256 99.34622 256 64 C 256 28.65378 227.34622 0 192 0 z M 171.03125 33.4375 L 184.4375 33.4375 L 184.4375 94.5625 L 171.03125 94.5625 L 171.03125 33.4375 z M 199.5625 33.4375 L 212.96875 33.4375 L 212.96875 94.5625 L 199.5625 94.5625 L 199.5625 33.4375 z "
       transform="translate(0,924.36218)"
       id="path3779"
       inkscape:export-filename="/home/jacobian/.conky/themes/Sun/pause.png"
       inkscape:export-xdpi="90"
       inkscape:export-ydpi="90" />
    <path
       style="fill:#ffffff;fill-opacity:1;fill-rule:evenodd;stroke:none"
       d="M 320 0 C 284.65378 0 256 28.65378 256 64 C 256 99.34622 284.65378 128 320 128 C 355.34622 128 384 99.34622 384 64 C 384 28.65378 355.34622 0 320 0 z M 294.625 37.625 L 345.375 37.625 L 345.375 90.375 L 294.625 90.375 L 294.625 37.625 z "
       transform="translate(0,924.36218)"
       id="path3781"
       inkscape:export-filename="/home/jacobian/.conky/themes/Sun/stop.png"
       inkscape:export-xdpi="90"
       inkscape:export-ydpi="90" />
  </g>
</svg>
